<svg width="40" height="42" viewBox="0 0 40 42" fill="none" xmlns="http://www.w3.org/2000/svg">
<ellipse cx="19.9083" cy="20.625" rx="19.9083" ry="20.625" fill="#FFF7EE"/>
<path d="M14.2439 5.5H25.5723C29.8879 5.5 33.3944 9.25374 33.3944 13.8737V26.0012C33.3944 28.2221 32.5702 30.352 31.1033 31.9223C29.6364 33.4927 27.6469 34.3749 25.5723 34.3749H14.2439C9.9283 34.3749 6.42188 30.6212 6.42188 26.0012V13.8737C6.42188 11.6529 7.24598 9.52299 8.71289 7.95261C10.1798 6.38223 12.1694 5.5 14.2439 5.5ZM13.9742 8.38749C12.6865 8.38749 11.4516 8.93509 10.5411 9.9098C9.63063 10.8845 9.11912 12.2065 9.11912 13.585V26.29C9.11912 29.163 11.2904 31.4874 13.9742 31.4874H25.8421C27.1297 31.4874 28.3646 30.9399 29.2751 29.9651C30.1856 28.9904 30.6971 27.6684 30.6971 26.29V13.585C30.6971 10.7119 28.5258 8.38749 25.8421 8.38749H13.9742ZM26.9884 10.5531C27.4355 10.5531 27.8643 10.7432 28.1804 11.0817C28.4966 11.4201 28.6742 11.8792 28.6742 12.3578C28.6742 12.8364 28.4966 13.2955 28.1804 13.6339C27.8643 13.9723 27.4355 14.1625 26.9884 14.1625C26.5413 14.1625 26.1125 13.9723 25.7964 13.6339C25.4802 13.2955 25.3026 12.8364 25.3026 12.3578C25.3026 11.8792 25.4802 11.4201 25.7964 11.0817C26.1125 10.7432 26.5413 10.5531 26.9884 10.5531ZM19.9081 12.7187C21.6965 12.7187 23.4116 13.4793 24.6762 14.8331C25.9408 16.1868 26.6512 18.0229 26.6512 19.9375C26.6512 21.852 25.9408 23.6881 24.6762 25.0419C23.4116 26.3957 21.6965 27.1562 19.9081 27.1562C18.1197 27.1562 16.4046 26.3957 15.14 25.0419C13.8754 23.6881 13.165 21.852 13.165 19.9375C13.165 18.0229 13.8754 16.1868 15.14 14.8331C16.4046 13.4793 18.1197 12.7187 19.9081 12.7187ZM19.9081 15.6062C18.8351 15.6062 17.806 16.0626 17.0472 16.8748C16.2885 17.6871 15.8622 18.7888 15.8622 19.9375C15.8622 21.0862 16.2885 22.1879 17.0472 23.0001C17.806 23.8124 18.8351 24.2687 19.9081 24.2687C20.9811 24.2687 22.0102 23.8124 22.769 23.0001C23.5277 22.1879 23.954 21.0862 23.954 19.9375C23.954 18.7888 23.5277 17.6871 22.769 16.8748C22.0102 16.0626 20.9811 15.6062 19.9081 15.6062Z" fill="#00798C" fill-opacity="0.5"/>
</svg>
